<?xml version="1.0" encoding="UTF-8"?>
<!DOCTYPE svg PUBLIC "-//W3C//DTD SVG 1.1//EN" "http://www.w3.org/Graphics/SVG/1.1/DTD/svg11.dtd">
<svg xmlns="http://www.w3.org/2000/svg" version="1.1" width="300px" height="300px" style="shape-rendering:geometricPrecision; text-rendering:geometricPrecision; image-rendering:optimizeQuality; fill-rule:evenodd; clip-rule:evenodd" xmlns:xlink="http://www.w3.org/1999/xlink">
<g><path style="opacity:0.999" fill="#aaa9b1" d="M 191.5,63.5 C 190.957,63.56 190.624,63.8933 190.5,64.5C 193.288,70.8919 194.121,77.5586 193,84.5C 192.722,85.4158 192.222,86.0825 191.5,86.5C 191.666,81.1563 191.499,75.8229 191,70.5C 190.837,68.324 190.004,66.4907 188.5,65C 183.833,64.3333 179.167,64.3333 174.5,65C 159.237,69.8106 143.904,74.3106 128.5,78.5C 127.502,105.328 127.169,132.328 127.5,159.5C 124.192,160.888 120.859,162.388 117.5,164C 119.041,165.371 120.375,166.871 121.5,168.5C 119.251,167.92 117.585,166.587 116.5,164.5C 116.5,132.5 116.5,100.5 116.5,68.5C 118.786,68.405 120.786,67.7384 122.5,66.5C 137.919,60.3104 153.919,55.9771 170.5,53.5C 179.478,52.8234 186.478,56.1568 191.5,63.5 Z"/></g>
<g><path style="opacity:0.686" fill="#b6b6b6" d="M 193.5,64.5 C 194.833,65.1667 195.833,66.1667 196.5,67.5C 194.5,67.5 193.5,66.5 193.5,64.5 Z"/></g>
<g><path style="opacity:0.999" fill="#414141" d="M 191.5,63.5 C 192.167,63.8333 192.833,64.1667 193.5,64.5C 193.5,66.5 194.5,67.5 196.5,67.5C 197.419,70.0892 199.086,72.0892 201.5,73.5C 203.824,82.7119 204.158,92.0453 202.5,101.5C 202.5,101.833 202.5,102.167 202.5,102.5C 200.025,103.687 199.025,105.687 199.5,108.5C 199.5,109.167 199.167,109.5 198.5,109.5C 197.094,109.973 196.427,110.973 196.5,112.5C 192.675,117.485 188.008,121.652 182.5,125C 174.117,128.739 165.45,131.572 156.5,133.5C 154.524,143.781 153.857,154.448 154.5,165.5C 145.473,169.09 136.139,171.423 126.5,172.5C 125.415,170.413 123.749,169.08 121.5,168.5C 120.375,166.871 119.041,165.371 117.5,164C 120.859,162.388 124.192,160.888 127.5,159.5C 128.791,159.737 129.791,159.404 130.5,158.5C 130.833,158.5 131.167,158.5 131.5,158.5C 134.916,158.472 137.916,157.472 140.5,155.5C 140.833,155.5 141.167,155.5 141.5,155.5C 143.476,145.219 144.143,134.552 143.5,123.5C 146.152,123.59 148.485,122.924 150.5,121.5C 151.209,120.596 152.209,120.263 153.5,120.5C 157.708,120.323 161.374,118.99 164.5,116.5C 166.713,115.227 169.046,114.227 171.5,113.5C 173.027,113.573 174.027,112.906 174.5,111.5C 176.404,111.262 177.738,110.262 178.5,108.5C 179.167,107.167 180.167,106.167 181.5,105.5C 184.59,103.732 186.59,101.065 187.5,97.5C 189.448,95.6796 190.448,93.3462 190.5,90.5C 190.232,88.901 190.566,87.5676 191.5,86.5C 192.222,86.0825 192.722,85.4158 193,84.5C 194.121,77.5586 193.288,70.8919 190.5,64.5C 190.624,63.8933 190.957,63.56 191.5,63.5 Z"/></g>
<g><path style="opacity:0.346" fill="#dedee1" d="M 122.5,66.5 C 120.786,67.7384 118.786,68.405 116.5,68.5C 116.5,100.5 116.5,132.5 116.5,164.5C 115.502,132.338 115.168,100.004 115.5,67.5C 117.806,67.0074 120.139,66.6741 122.5,66.5 Z"/></g>
<g><path style="opacity:0.925" fill="#9d9d9d" d="M 196.5,67.5 C 198.914,68.9108 200.581,70.9108 201.5,73.5C 199.086,72.0892 197.419,70.0892 196.5,67.5 Z"/></g>
<g><path style="opacity:0.999" fill="#404040" d="M 157.5,78.5 C 166.384,77.3821 169.384,81.0488 166.5,89.5C 164.214,89.595 162.214,90.2616 160.5,91.5C 159.292,92.2341 157.959,92.5674 156.5,92.5C 155.504,92.4142 154.671,92.7476 154,93.5C 153.506,95.1341 153.34,96.8008 153.5,98.5C 150.123,98.9595 146.789,99.6261 143.5,100.5C 143.5,94.5 143.5,88.5 143.5,82.5C 147.982,80.5619 152.649,79.2286 157.5,78.5 Z"/></g>
<g><path style="opacity:0.474" fill="#dbdbde" d="M 128.5,78.5 C 127.842,105.521 128.509,132.188 130.5,158.5C 129.791,159.404 128.791,159.737 127.5,159.5C 127.169,132.328 127.502,105.328 128.5,78.5 Z"/></g>
<g><path style="opacity:0.999" fill="#aeadb4" d="M 157.5,78.5 C 160.304,77.3622 163.304,77.1955 166.5,78C 170.967,81.4651 175.133,85.2984 179,89.5C 180.877,96.5804 178.711,102.08 172.5,106C 166.234,109.479 159.567,111.145 152.5,111C 148.701,108.203 145.201,105.036 142,101.5C 141.833,98.3333 141.667,95.1667 141.5,92C 141.515,88.4242 142.182,85.2575 143.5,82.5C 143.5,88.5 143.5,94.5 143.5,100.5C 146.789,99.6261 150.123,98.9595 153.5,98.5C 153.34,96.8008 153.506,95.1341 154,93.5C 154.671,92.7476 155.504,92.4142 156.5,92.5C 155.374,93.8583 155.374,95.1916 156.5,96.5C 158.924,95.5771 160.924,94.0771 162.5,92C 161.906,91.5357 161.239,91.369 160.5,91.5C 162.214,90.2616 164.214,89.595 166.5,89.5C 169.384,81.0488 166.384,77.3821 157.5,78.5 Z M 160.5,91.5 C 161.239,91.369 161.906,91.5357 162.5,92C 160.924,94.0771 158.924,95.5771 156.5,96.5C 155.374,95.1916 155.374,93.8583 156.5,92.5C 157.959,92.5674 159.292,92.2341 160.5,91.5 Z"/></g>
<g><path style="opacity:0.687" fill="#8e8e8e" d="M 201.5,73.5 C 202.793,74.842 203.626,76.5087 204,78.5C 204.667,85.1667 204.667,91.8333 204,98.5C 203.768,99.7375 203.268,100.737 202.5,101.5C 204.158,92.0453 203.824,82.7119 201.5,73.5 Z"/></g>
<g><path style="opacity:0.271" fill="#cdcdcd" d="M 190.5,90.5 C 190.448,93.3462 189.448,95.6796 187.5,97.5C 187.935,94.8427 188.935,92.5093 190.5,90.5 Z"/></g>
<g><path style="opacity:0.435" fill="#b7b7b7" d="M 187.5,97.5 C 186.59,101.065 184.59,103.732 181.5,105.5C 183.147,102.527 185.147,99.8599 187.5,97.5 Z"/></g>
<g><path style="opacity:0.824" fill="#999999" d="M 202.5,102.5 C 202.008,104.819 201.008,106.819 199.5,108.5C 199.025,105.687 200.025,103.687 202.5,102.5 Z"/></g>
<g><path style="opacity:0.482" fill="#b4b4b4" d="M 178.5,108.5 C 177.738,110.262 176.404,111.262 174.5,111.5C 175.262,109.738 176.596,108.738 178.5,108.5 Z"/></g>
<g><path style="opacity:0.478" fill="#a0a0a0" d="M 198.5,109.5 C 198.573,111.027 197.906,112.027 196.5,112.5C 196.427,110.973 197.094,109.973 198.5,109.5 Z"/></g>
<g><path style="opacity:0.631" fill="#ababab" d="M 174.5,111.5 C 174.027,112.906 173.027,113.573 171.5,113.5C 171.973,112.094 172.973,111.427 174.5,111.5 Z"/></g>
<g><path style="opacity:0.796" fill="#909090" d="M 164.5,116.5 C 161.374,118.99 157.708,120.323 153.5,120.5C 156.939,118.796 160.605,117.462 164.5,116.5 Z"/></g>
<g><path style="opacity:0.808" fill="#949494" d="M 150.5,121.5 C 148.485,122.924 146.152,123.59 143.5,123.5C 145.515,122.076 147.848,121.41 150.5,121.5 Z"/></g>
<g><path style="opacity:0.919" fill="#9b9b9b" d="M 143.5,123.5 C 144.143,134.552 143.476,145.219 141.5,155.5C 140.857,144.448 141.524,133.781 143.5,123.5 Z"/></g>
<g><path style="opacity:0.087" fill="#ececec" d="M 156.5,133.5 C 155.855,144.265 155.188,154.932 154.5,165.5C 153.857,154.448 154.524,143.781 156.5,133.5 Z"/></g>
<g><path style="opacity:0.894" fill="#8e8e8e" d="M 140.5,155.5 C 137.916,157.472 134.916,158.472 131.5,158.5C 134.215,156.928 137.215,155.928 140.5,155.5 Z"/></g>
<g><path style="opacity:0.663" fill="#b0b0b0" d="M 121.5,168.5 C 123.749,169.08 125.415,170.413 126.5,172.5C 124.251,171.92 122.585,170.587 121.5,168.5 Z"/></g>
<g><path style="opacity:0.51" fill="#a0a0a0" d="M 129.5,194.5 C 129.5,201.5 129.5,208.5 129.5,215.5C 128.5,215.5 127.5,215.5 126.5,215.5C 126.5,214.167 126.5,212.833 126.5,211.5C 127.268,212.263 127.768,213.263 128,214.5C 128.172,207.654 128.672,200.987 129.5,194.5 Z"/></g>
<g><path style="opacity:0.996" fill="#585858" d="M 129.5,194.5 C 131.5,194.5 133.5,194.5 135.5,194.5C 135.5,201.5 135.5,208.5 135.5,215.5C 133.5,215.5 131.5,215.5 129.5,215.5C 129.5,208.5 129.5,201.5 129.5,194.5 Z"/></g>
<g><path style="opacity:0.773" fill="#909090" d="M 138.5,194.5 C 138.5,201.5 138.5,208.5 138.5,215.5C 137.179,212.402 136.512,208.902 136.5,205C 136.512,201.098 137.179,197.598 138.5,194.5 Z"/></g>
<g><path style="opacity:0.996" fill="#494949" d="M 138.5,194.5 C 140.167,194.5 141.833,194.5 143.5,194.5C 143.5,201.5 143.5,208.5 143.5,215.5C 141.833,215.5 140.167,215.5 138.5,215.5C 138.5,208.5 138.5,201.5 138.5,194.5 Z"/></g>
<g><path style="opacity:0.992" fill="#404040" d="M 113.5,196.5 C 116.167,196.5 118.833,196.5 121.5,196.5C 122.194,201.915 123.86,206.915 126.5,211.5C 126.5,212.833 126.5,214.167 126.5,215.5C 124.833,215.5 123.167,215.5 121.5,215.5C 121.771,213.62 121.104,212.287 119.5,211.5C 117.042,211.227 115.375,212.227 114.5,214.5C 112.604,215.466 110.604,215.799 108.5,215.5C 108.5,214.167 108.5,212.833 108.5,211.5C 111.14,206.915 112.806,201.915 113.5,196.5 Z M 118.5,207.5 C 117.833,207.5 117.167,207.5 116.5,207.5C 116.737,203.711 117.404,203.711 118.5,207.5 Z"/></g>
<g><path style="opacity:0.991" fill="#585858" d="M 165.5,197.5 C 166.379,199.228 167.046,201.061 167.5,203C 167.057,204.825 166.723,206.658 166.5,208.5C 164.052,209.473 161.385,209.806 158.5,209.5C 158.5,211.5 158.5,213.5 158.5,215.5C 155.833,215.5 153.167,215.5 150.5,215.5C 150.5,209.167 150.5,202.833 150.5,196.5C 155.695,196.179 160.695,196.513 165.5,197.5 Z M 161.5,201.5 C 161.567,202.959 161.234,204.292 160.5,205.5C 159.351,205.209 158.684,204.376 158.5,203C 158.667,202.167 158.833,201.333 159,200.5C 159.671,201.252 160.504,201.586 161.5,201.5 Z"/></g>
<g><path style="opacity:0.757" fill="#acacac" d="M 113.5,196.5 C 112.806,201.915 111.14,206.915 108.5,211.5C 109.595,206.216 111.261,201.216 113.5,196.5 Z"/></g>
<g><path style="opacity:0.796" fill="#acacac" d="M 121.5,196.5 C 123.735,201.205 125.402,206.205 126.5,211.5C 123.86,206.915 122.194,201.915 121.5,196.5 Z"/></g>
<g><path style="opacity:0.989" fill="#424242" d="M 173.5,199.5 C 176.385,199.194 179.052,199.527 181.5,200.5C 182.445,205.405 182.779,210.405 182.5,215.5C 181.167,215.5 179.833,215.5 178.5,215.5C 178.043,213.443 177.043,213.443 175.5,215.5C 174.5,215.5 173.5,215.5 172.5,215.5C 172.027,214.094 171.027,213.427 169.5,213.5C 168.803,209.222 170.47,206.555 174.5,205.5C 175.552,205.649 176.552,205.483 177.5,205C 176.095,203.731 174.429,203.231 172.5,203.5C 170.952,203.179 170.285,202.179 170.5,200.5C 171.791,200.737 172.791,200.404 173.5,199.5 Z M 176.5,208.5 C 176.833,208.5 177.167,208.5 177.5,208.5C 177.443,209.609 177.11,210.609 176.5,211.5C 176.167,211.5 175.833,211.5 175.5,211.5C 175.557,210.391 175.89,209.391 176.5,208.5 Z"/></g>
<g><path style="opacity:0.988" fill="#4a4a4a" d="M 194.5,199.5 C 195.278,200.156 195.944,200.989 196.5,202C 196.164,203.03 195.497,203.53 194.5,203.5C 193.448,203.351 192.448,203.517 191.5,204C 193.879,204.716 195.879,205.883 197.5,207.5C 197.5,209.5 197.5,211.5 197.5,213.5C 197.389,214.117 197.056,214.617 196.5,215C 193.183,215.498 189.85,215.665 186.5,215.5C 186.157,213.517 186.824,212.183 188.5,211.5C 189.5,211.5 190.5,211.5 191.5,211.5C 192.043,211.44 192.376,211.107 192.5,210.5C 191.675,209.614 190.675,209.281 189.5,209.5C 187.973,209.573 186.973,208.906 186.5,207.5C 186.5,205.167 186.5,202.833 186.5,200.5C 188.948,199.527 191.615,199.194 194.5,199.5 Z"/></g>
<g><path style="opacity:0.987" fill="#4a4a4a" d="M 211.5,199.5 C 211.843,201.483 211.176,202.817 209.5,203.5C 208.5,203.5 207.5,203.5 206.5,203.5C 205.957,203.56 205.624,203.893 205.5,204.5C 206.325,205.386 207.325,205.719 208.5,205.5C 209.514,206.674 210.847,207.34 212.5,207.5C 213.833,209.167 213.833,210.833 212.5,212.5C 211.5,212.833 210.833,213.5 210.5,214.5C 207.375,215.479 204.042,215.813 200.5,215.5C 200.5,214.167 200.5,212.833 200.5,211.5C 201.5,211.5 202.5,211.5 203.5,211.5C 207.286,211.362 207.286,210.695 203.5,209.5C 201.016,207.455 200.016,204.788 200.5,201.5C 200.611,200.883 200.944,200.383 201.5,200C 204.817,199.502 208.15,199.335 211.5,199.5 Z"/></g>
<g><path style="opacity:0.161" fill="#dedede" d="M 173.5,199.5 C 172.791,200.404 171.791,200.737 170.5,200.5C 170.285,202.179 170.952,203.179 172.5,203.5C 171.791,204.404 170.791,204.737 169.5,204.5C 169.5,202.833 169.5,201.167 169.5,199.5C 170.833,199.5 172.167,199.5 173.5,199.5 Z"/></g>
<g><path style="opacity:0.761" fill="#ababab" d="M 194.5,199.5 C 195.833,199.5 197.167,199.5 198.5,199.5C 199.161,203.517 197.828,204.851 194.5,203.5C 195.497,203.53 196.164,203.03 196.5,202C 195.944,200.989 195.278,200.156 194.5,199.5 Z"/></g>
<g><path style="opacity:0.239" fill="#c3c3c3" d="M 165.5,197.5 C 167.876,198.512 168.876,200.345 168.5,203C 168.607,205.221 167.94,207.054 166.5,208.5C 166.723,206.658 167.057,204.825 167.5,203C 167.046,201.061 166.379,199.228 165.5,197.5 Z"/></g>
<g><path style="opacity:0.153" fill="#dadada" d="M 211.5,199.5 C 212.451,200.919 212.784,202.585 212.5,204.5C 211.209,204.737 210.209,204.404 209.5,203.5C 211.176,202.817 211.843,201.483 211.5,199.5 Z"/></g>
<g><path style="opacity:0.102" fill="#c9c9c9" d="M 118.5,207.5 C 117.404,203.711 116.737,203.711 116.5,207.5C 115.32,205.144 115.654,202.811 117.5,200.5C 119.038,202.89 119.371,205.223 118.5,207.5 Z M 118.5,207.5 C 117.833,207.5 117.167,207.5 116.5,207.5C 116.737,203.711 117.404,203.711 118.5,207.5 Z"/></g>
<g><path style="opacity:0.565" fill="#acacac" d="M 161.5,201.5 C 162.124,201.917 162.457,202.584 162.5,203.5C 162.253,204.713 161.586,205.38 160.5,205.5C 161.234,204.292 161.567,202.959 161.5,201.5 Z"/></g>
<g><path style="opacity:0.808" fill="#727272" d="M 181.5,200.5 C 182.833,200.5 183.5,201.167 183.5,202.5C 183.5,206.833 183.5,211.167 183.5,215.5C 183.167,215.5 182.833,215.5 182.5,215.5C 182.779,210.405 182.445,205.405 181.5,200.5 Z"/></g>
<g><path style="opacity:0.075" fill="#d9d9d9" d="M 186.5,200.5 C 186.5,202.833 186.5,205.167 186.5,207.5C 185.778,207.082 185.278,206.416 185,205.5C 184.333,207.833 184.333,210.167 185,212.5C 185.924,210.505 187.09,210.172 188.5,211.5C 186.824,212.183 186.157,213.517 186.5,215.5C 185.5,215.5 184.5,215.5 183.5,215.5C 183.5,211.167 183.5,206.833 183.5,202.5C 184.117,202.611 184.617,202.944 185,203.5C 185.232,202.263 185.732,201.263 186.5,200.5 Z"/></g>
<g><path style="opacity:0.02" fill="#d3d3d3" d="M 206.5,203.5 C 207.167,204.167 207.833,204.833 208.5,205.5C 207.325,205.719 206.325,205.386 205.5,204.5C 205.624,203.893 205.957,203.56 206.5,203.5 Z"/></g>
<g><path style="opacity:0.173" fill="#c6c6c6" d="M 208.5,205.5 C 210.38,205.229 211.713,205.896 212.5,207.5C 210.847,207.34 209.514,206.674 208.5,205.5 Z"/></g>
<g><path style="opacity:0.043" fill="#d3d3d3" d="M 200.5,201.5 C 200.016,204.788 201.016,207.455 203.5,209.5C 201.983,209.489 200.816,208.823 200,207.5C 199.211,205.288 199.378,203.288 200.5,201.5 Z"/></g>
<g><path style="opacity:0.378" fill="#c1c1c1" d="M 174.5,205.5 C 170.47,206.555 168.803,209.222 169.5,213.5C 167.141,208.401 168.807,205.734 174.5,205.5 Z"/></g>
<g><path style="opacity:0.075" fill="#e8e8e8" d="M 176.5,208.5 C 175.89,209.391 175.557,210.391 175.5,211.5C 174.115,210.053 174.448,209.053 176.5,208.5 Z"/></g>
<g><path style="opacity:0.208" fill="#d1d1d1" d="M 189.5,209.5 C 190.675,209.281 191.675,209.614 192.5,210.5C 192.376,211.107 192.043,211.44 191.5,211.5C 190.833,210.833 190.167,210.167 189.5,209.5 Z"/></g>
<g><path style="opacity:0.525" fill="#a9a9a9" d="M 177.5,208.5 C 178.885,209.947 178.552,210.947 176.5,211.5C 177.11,210.609 177.443,209.609 177.5,208.5 Z"/></g>
<g><path style="opacity:0.561" fill="#b2b2b2" d="M 197.5,207.5 C 198.401,208.29 199.068,209.29 199.5,210.5C 198.833,211.5 198.167,212.5 197.5,213.5C 197.5,211.5 197.5,209.5 197.5,207.5 Z"/></g>
<g><path style="opacity:0.086" fill="#e9e9e9" d="M 199.5,210.5 C 201.099,210.232 202.432,210.566 203.5,211.5C 202.5,211.5 201.5,211.5 200.5,211.5C 200.5,212.833 200.5,214.167 200.5,215.5C 199.549,214.081 199.216,212.415 199.5,210.5 Z"/></g>
<g><path style="opacity:0.498" fill="#b4b4b4" d="M 119.5,211.5 C 121.104,212.287 121.771,213.62 121.5,215.5C 119.896,214.713 119.229,213.38 119.5,211.5 Z"/></g>
<g><path style="opacity:0.016" fill="#cfcfcf" d="M 212.5,212.5 C 212.5,213.833 211.833,214.5 210.5,214.5C 210.833,213.5 211.5,212.833 212.5,212.5 Z"/></g>
<g><path style="opacity:0.584" fill="#b8b8b8" d="M 108.5,211.5 C 108.5,212.833 108.5,214.167 108.5,215.5C 107.761,215.631 107.094,215.464 106.5,215C 107.085,213.698 107.751,212.531 108.5,211.5 Z"/></g>
<g><path style="opacity:0.498" fill="#9f9f9f" d="M 169.5,213.5 C 171.027,213.427 172.027,214.094 172.5,215.5C 170.973,215.573 169.973,214.906 169.5,213.5 Z"/></g>
<g><path style="opacity:0.024" fill="#e3e3e3" d="M 178.5,215.5 C 177.5,215.5 176.5,215.5 175.5,215.5C 177.043,213.443 178.043,213.443 178.5,215.5 Z"/></g>
</svg>
