<?xml version="1.0" encoding="UTF-8"?>
<!DOCTYPE svg PUBLIC "-//W3C//DTD SVG 1.1//EN" "http://www.w3.org/Graphics/SVG/1.1/DTD/svg11.dtd">
<svg xmlns="http://www.w3.org/2000/svg" version="1.1" width="1920px" height="1080px" style="shape-rendering:geometricPrecision; text-rendering:geometricPrecision; image-rendering:optimizeQuality; fill-rule:evenodd; clip-rule:evenodd" xmlns:xlink="http://www.w3.org/1999/xlink">
<g><path style="opacity:1" fill="#e60012" d="M -0.5,-0.5 C 212.833,-0.5 426.167,-0.5 639.5,-0.5C 639.5,359.5 639.5,719.5 639.5,1079.5C 426.167,1079.5 212.833,1079.5 -0.5,1079.5C -0.5,719.5 -0.5,359.5 -0.5,-0.5 Z"/></g>
<g><path style="opacity:1" fill="#01429b" d="M 639.5,-0.5 C 852.833,-0.5 1066.17,-0.5 1279.5,-0.5C 1279.5,359.5 1279.5,719.5 1279.5,1079.5C 1066.17,1079.5 852.833,1079.5 639.5,1079.5C 639.5,719.5 639.5,359.5 639.5,-0.5 Z"/></g>
<g><path style="opacity:1" fill="#107a11" d="M 1279.5,-0.5 C 1492.83,-0.5 1706.17,-0.5 1919.5,-0.5C 1919.5,359.5 1919.5,719.5 1919.5,1079.5C 1706.17,1079.5 1492.83,1079.5 1279.5,1079.5C 1279.5,719.5 1279.5,359.5 1279.5,-0.5 Z"/></g>
<g><path style="opacity:1" fill="#c11a24" d="M 329.5,374.5 C 342.994,373.339 356.66,373.173 370.5,374C 372.708,374.191 374.708,374.691 376.5,375.5C 360.851,374.637 345.184,374.304 329.5,374.5 Z"/></g>
<g><path style="opacity:1" fill="#fffbfb" d="M 236.5,578.5 C 235.833,578.5 235.167,578.5 234.5,578.5C 229.365,575.428 224.365,572.095 219.5,568.5C 216.138,564.808 212.805,561.141 209.5,557.5C 208.341,553.849 206.674,550.515 204.5,547.5C 203.362,542.909 202.529,538.243 202,533.5C 201.333,495.5 201.333,457.5 202,419.5C 203.026,416.198 203.86,412.865 204.5,409.5C 212.008,392.654 224.675,381.988 242.5,377.5C 263.477,376.558 284.477,376.225 305.5,376.5C 305.5,444.5 305.5,512.5 305.5,580.5C 285.497,580.667 265.497,580.5 245.5,580C 242.522,579.304 239.522,578.804 236.5,578.5 Z"/></g>
<g><path style="opacity:1" fill="#ffdadd" d="M 251.5,374.5 C 270.076,374.174 288.576,374.507 307,375.5C 307.5,444.166 307.667,512.833 307.5,581.5C 288.91,582.486 270.243,582.82 251.5,582.5C 246.138,582.116 241.138,580.783 236.5,578.5C 239.522,578.804 242.522,579.304 245.5,580C 265.497,580.5 285.497,580.667 305.5,580.5C 305.5,512.5 305.5,444.5 305.5,376.5C 284.477,376.225 263.477,376.558 242.5,377.5C 245.189,375.883 248.189,374.883 251.5,374.5 Z"/></g>
<g><path style="opacity:1" fill="#c30f1c" d="M 251.5,374.5 C 270.236,373.169 289.069,373.169 308,374.5C 308.832,443.668 308.665,512.668 307.5,581.5C 307.667,512.833 307.5,444.166 307,375.5C 288.576,374.507 270.076,374.174 251.5,374.5 Z"/></g>
<g><path style="opacity:1" fill="#fffefe" d="M 379.5,377.5 C 384.71,378.57 389.71,380.237 394.5,382.5C 407.55,391.218 415.884,403.218 419.5,418.5C 420.476,457.143 420.809,495.809 420.5,534.5C 419.419,537.627 418.753,540.96 418.5,544.5C 416.38,550.073 413.713,555.407 410.5,560.5C 404.728,566.615 398.394,571.948 391.5,576.5C 388.156,577.508 384.823,578.508 381.5,579.5C 364.528,580.443 347.528,580.776 330.5,580.5C 330.5,512.5 330.5,444.5 330.5,376.5C 346.862,376.227 363.195,376.56 379.5,377.5 Z"/></g>
<g><path style="opacity:1" fill="#ce2a2e" d="M 376.5,375.5 C 381.717,375.975 386.717,377.142 391.5,379C 393.063,379.759 394.063,380.926 394.5,382.5C 389.71,380.237 384.71,378.57 379.5,377.5C 378.5,376.833 377.5,376.167 376.5,375.5 Z"/></g>
<g><path style="opacity:1" fill="#ffe8ec" d="M 329.5,374.5 C 345.184,374.304 360.851,374.637 376.5,375.5C 377.5,376.167 378.5,376.833 379.5,377.5C 363.195,376.56 346.862,376.227 330.5,376.5C 330.5,444.5 330.5,512.5 330.5,580.5C 347.528,580.776 364.528,580.443 381.5,579.5C 378.264,580.865 374.931,581.865 371.5,582.5C 357.5,582.5 343.5,582.5 329.5,582.5C 329.5,513.167 329.5,443.833 329.5,374.5 Z"/></g>
<g><path style="opacity:1" fill="#e60012" d="M 244.5,563.5 C 237.597,561.218 231.93,557.218 227.5,551.5C 226.088,547.103 224.088,543.103 221.5,539.5C 220.357,499.856 220.19,460.189 221,420.5C 222.296,417.161 223.463,413.827 224.5,410.5C 224.427,408.973 225.094,407.973 226.5,407.5C 229.452,405.215 232.118,402.548 234.5,399.5C 235.659,397.75 237.326,396.75 239.5,396.5C 243.514,395.397 247.514,394.23 251.5,393C 263.829,392.5 276.162,392.333 288.5,392.5C 288.5,449.833 288.5,507.167 288.5,564.5C 273.804,564.766 259.138,564.433 244.5,563.5 Z"/></g>
<g><path style="opacity:1" fill="#c11822" d="M 244.5,563.5 C 259.138,564.433 273.804,564.766 288.5,564.5C 288.5,507.167 288.5,449.833 288.5,392.5C 276.162,392.333 263.829,392.5 251.5,393C 247.514,394.23 243.514,395.397 239.5,396.5C 242.437,394.411 245.77,392.911 249.5,392C 262.829,391.5 276.163,391.333 289.5,391.5C 289.5,449.5 289.5,507.5 289.5,565.5C 275.496,565.667 261.496,565.5 247.5,565C 246.263,564.768 245.263,564.268 244.5,563.5 Z"/></g>
<g><path style="opacity:1" fill="#cb3335" d="M 234.5,399.5 C 232.118,402.548 229.452,405.215 226.5,407.5C 228.167,403.833 230.833,401.167 234.5,399.5 Z"/></g>
<g><path style="opacity:1" fill="#f7fcf7" d="M 1638.5,414.5 C 1635.17,415.167 1631.83,415.833 1628.5,416.5C 1618.57,418.961 1608.9,422.295 1599.5,426.5C 1589.82,422.164 1579.82,418.83 1569.5,416.5C 1566.5,415.833 1563.5,415.167 1560.5,414.5C 1586.48,401.168 1612.48,401.168 1638.5,414.5 Z"/></g>
<g><path style="opacity:1" fill="#83c483" d="M 1560.5,414.5 C 1563.5,415.167 1566.5,415.833 1569.5,416.5C 1565.49,416.666 1561.49,416.499 1557.5,416C 1558.53,415.487 1559.53,414.987 1560.5,414.5 Z"/></g>
<g><path style="opacity:1" fill="#84c483" d="M 1638.5,414.5 C 1639.76,414.461 1640.76,414.961 1641.5,416C 1637.18,416.499 1632.85,416.666 1628.5,416.5C 1631.83,415.833 1635.17,415.167 1638.5,414.5 Z"/></g>
<g><path style="opacity:1" fill="#cc1c23" d="M 269.5,421.5 C 261.631,416.734 253.631,416.4 245.5,420.5C 245.721,419.265 246.388,418.265 247.5,417.5C 253.472,416.336 259.472,416.17 265.5,417C 267.192,418.307 268.525,419.807 269.5,421.5 Z"/></g>
<g><path style="opacity:1" fill="#fffafb" d="M 269.5,421.5 C 277.201,429.481 278.534,438.481 273.5,448.5C 271.5,449.833 269.833,451.5 268.5,453.5C 259.886,457.806 251.552,457.473 243.5,452.5C 241.473,451.139 239.806,449.473 238.5,447.5C 234.501,440.495 234.501,433.495 238.5,426.5C 240.833,424.5 243.167,422.5 245.5,420.5C 253.631,416.4 261.631,416.734 269.5,421.5 Z"/></g>
<g><path style="opacity:1" fill="#294f93" d="M 917.5,417.5 C 918.274,416.853 919.274,416.52 920.5,416.5C 927.852,417.891 935.185,419.391 942.5,421C 943.571,421.852 944.571,422.685 945.5,423.5C 936.164,421.5 926.831,419.5 917.5,417.5 Z"/></g>
<g><path style="opacity:1" fill="#fdfefe" d="M 917.5,417.5 C 926.831,419.5 936.164,421.5 945.5,423.5C 953.05,425.971 960.716,427.971 968.5,429.5C 976.742,432.159 985.076,434.825 993.5,437.5C 993.833,437.5 994.167,437.5 994.5,437.5C 1002.01,440.675 1009.68,443.675 1017.5,446.5C 1036.26,455.935 1047.93,470.935 1052.5,491.5C 1054.57,507.08 1053.57,522.413 1049.5,537.5C 1041.55,554.312 1028.22,561.479 1009.5,559C 1003.84,558 998.51,556.167 993.5,553.5C 993.667,525.498 993.5,497.498 993,469.5C 992.861,466.555 991.694,464.221 989.5,462.5C 986.274,458.145 981.941,456.645 976.5,458C 973.976,459.883 972.642,462.383 972.5,465.5C 972.166,530.673 971.166,595.673 969.5,660.5C 952.4,655.973 935.4,650.973 918.5,645.5C 917.5,569.503 917.167,493.503 917.5,417.5 Z"/></g>
<g><path style="opacity:1" fill="#ad2028" d="M 419.5,418.5 C 420.906,418.973 421.573,419.973 421.5,421.5C 421.832,459.337 421.498,497.004 420.5,534.5C 420.809,495.809 420.476,457.143 419.5,418.5 Z"/></g>
<g><path style="opacity:1" fill="#d3121c" d="M 421.5,421.5 C 422.664,459.331 422.831,497.331 422,535.5C 421.08,538.101 420.413,540.768 420,543.5C 419.617,544.056 419.117,544.389 418.5,544.5C 418.753,540.96 419.419,537.627 420.5,534.5C 421.498,497.004 421.832,459.337 421.5,421.5 Z"/></g>
<g><path style="opacity:1" fill="#fbfefb" d="M 1648.5,426.5 C 1651.19,426.336 1653.85,426.503 1656.5,427C 1679.33,450.818 1685.16,478.318 1674,509.5C 1671.46,515.365 1668.12,520.699 1664,525.5C 1663.52,514.396 1660.52,504.062 1655,494.5C 1645.39,477.558 1634.22,461.724 1621.5,447C 1629.49,438.689 1638.49,431.856 1648.5,426.5 Z"/></g>
<g><path style="opacity:1" fill="#c61921" d="M 224.5,410.5 C 223.463,413.827 222.296,417.161 221,420.5C 220.19,460.189 220.357,499.856 221.5,539.5C 220.778,539.082 220.278,538.416 220,537.5C 219.333,498.167 219.333,458.833 220,419.5C 220.663,415.965 222.163,412.965 224.5,410.5 Z"/></g>
<g><path style="opacity:1" fill="#d0262a" d="M 269.5,421.5 C 271.854,422.013 273.854,423.179 275.5,425C 275.167,425.333 274.833,425.667 274.5,426C 279.128,432.007 279.794,438.507 276.5,445.5C 276.132,447.175 275.132,448.175 273.5,448.5C 278.534,438.481 277.201,429.481 269.5,421.5 Z"/></g>
<g><path style="opacity:1" fill="#fcfefb" d="M 1530.5,520.5 C 1521.14,503.661 1517.8,485.661 1520.5,466.5C 1524.07,451.186 1531.4,438.02 1542.5,427C 1547.61,425.889 1552.28,426.889 1556.5,430C 1563.93,434.928 1570.93,440.428 1577.5,446.5C 1564.97,461.533 1553.8,477.533 1544,494.5C 1538.57,504.112 1535.57,514.445 1535,525.5C 1533.48,523.76 1531.98,522.094 1530.5,520.5 Z"/></g>
<g><path style="opacity:1" fill="#c41c22" d="M 204.5,409.5 C 203.86,412.865 203.026,416.198 202,419.5C 201.333,457.5 201.333,495.5 202,533.5C 202.529,538.243 203.362,542.909 204.5,547.5C 203.067,544.718 201.9,541.718 201,538.5C 200.167,497.496 200.333,456.496 201.5,415.5C 202.011,413.116 203.011,411.116 204.5,409.5 Z"/></g>
<g><path style="opacity:1" fill="#2b5195" d="M 968.5,429.5 C 974.595,430.142 980.595,431.308 986.5,433C 988.993,434.419 991.326,435.919 993.5,437.5C 985.076,434.825 976.742,432.159 968.5,429.5 Z"/></g>
<g><path style="opacity:1" fill="#ca2127" d="M 238.5,426.5 C 234.501,433.495 234.501,440.495 238.5,447.5C 236.665,446.878 235.498,445.544 235,443.5C 234.172,438.798 234.338,434.131 235.5,429.5C 236.141,428.007 237.141,427.007 238.5,426.5 Z"/></g>
<g><path style="opacity:1" fill="#274e92" d="M 994.5,437.5 C 1001.06,438.567 1007.4,440.4 1013.5,443C 1015.32,443.74 1016.65,444.907 1017.5,446.5C 1009.68,443.675 1002.01,440.675 994.5,437.5 Z"/></g>
<g><path style="opacity:1" fill="#ce2127" d="M 243.5,452.5 C 251.552,457.473 259.886,457.806 268.5,453.5C 268.196,454.15 267.863,454.817 267.5,455.5C 260.207,459.383 252.874,459.383 245.5,455.5C 244.388,454.735 243.721,453.735 243.5,452.5 Z"/></g>
<g><path style="opacity:1" fill="#c5232a" d="M 381.5,470.5 C 378.175,470.169 374.841,469.836 371.5,469.5C 367.295,469.952 363.295,470.952 359.5,472.5C 360.975,470.59 362.975,469.424 365.5,469C 369.833,468.333 374.167,468.333 378.5,469C 379.737,469.232 380.737,469.732 381.5,470.5 Z"/></g>
<g><path style="opacity:1" fill="#fdfefd" d="M 1620.5,554.5 C 1610.91,556.089 1601.24,556.755 1591.5,556.5C 1574.17,555.247 1559,548.914 1546,537.5C 1544.08,533.195 1544.08,528.862 1546,524.5C 1559.15,500.85 1576.98,481.517 1599.5,466.5C 1619.16,479.993 1635.66,496.659 1649,516.5C 1653.02,522.254 1654.69,528.587 1654,535.5C 1650.06,540.394 1645.23,544.228 1639.5,547C 1633.25,550.02 1626.92,552.52 1620.5,554.5 Z"/></g>
<g><path style="opacity:1" fill="#e40514" d="M 381.5,470.5 C 386.42,472.419 390.087,475.752 392.5,480.5C 392.5,485.833 392.5,491.167 392.5,496.5C 388.958,505.853 382.125,510.187 372,509.5C 362.776,509.751 356.276,505.751 352.5,497.5C 351.671,492.547 351.337,487.547 351.5,482.5C 352.759,477.951 355.426,474.618 359.5,472.5C 363.295,470.952 367.295,469.952 371.5,469.5C 374.841,469.836 378.175,470.169 381.5,470.5 Z"/></g>
<g><path style="opacity:1" fill="#4c76af" d="M 972.5,465.5 C 972.5,530.833 972.5,596.167 972.5,661.5C 971.209,661.737 970.209,661.404 969.5,660.5C 971.166,595.673 972.166,530.673 972.5,465.5 Z"/></g>
<g><path style="opacity:1" fill="#2f5b98" d="M 989.5,462.5 C 991.694,464.221 992.861,466.555 993,469.5C 993.5,497.498 993.667,525.498 993.5,553.5C 992.668,526.67 992.168,499.67 992,472.5C 990.847,469.245 990.013,465.912 989.5,462.5 Z"/></g>
<g><path style="opacity:1" fill="#ca2b2d" d="M 392.5,480.5 C 393.973,483.017 394.64,485.85 394.5,489C 394.7,491.866 394.033,494.366 392.5,496.5C 392.5,491.167 392.5,485.833 392.5,480.5 Z"/></g>
<g><path style="opacity:1" fill="#c0353a" d="M 351.5,482.5 C 351.337,487.547 351.671,492.547 352.5,497.5C 351.778,497.082 351.278,496.416 351,495.5C 350.186,490.98 350.353,486.646 351.5,482.5 Z"/></g>
<g><path style="opacity:1" fill="#307d2d" d="M 1520.5,466.5 C 1517.8,485.661 1521.14,503.661 1530.5,520.5C 1528.46,518.965 1526.79,516.965 1525.5,514.5C 1518.96,499.91 1516.8,484.577 1519,468.5C 1519.28,467.584 1519.78,466.918 1520.5,466.5 Z"/></g>
<g><path style="opacity:1" fill="#244e92" d="M 1052.5,491.5 C 1053.83,497.463 1054.5,503.796 1054.5,510.5C 1054.89,519.014 1054.06,527.348 1052,535.5C 1051.29,536.381 1050.46,537.047 1049.5,537.5C 1053.57,522.413 1054.57,507.08 1052.5,491.5 Z"/></g>
<g><path style="opacity:1" fill="#cd292c" d="M 221.5,539.5 C 224.088,543.103 226.088,547.103 227.5,551.5C 223.925,548.35 221.925,544.35 221.5,539.5 Z"/></g>
<g><path style="opacity:1" fill="#4a8b48" d="M 1620.5,554.5 C 1620.39,555.117 1620.06,555.617 1619.5,556C 1610.04,557.662 1600.7,557.828 1591.5,556.5C 1601.24,556.755 1610.91,556.089 1620.5,554.5 Z"/></g>
<g><path style="opacity:1" fill="#fafcfd" d="M 905.5,604.5 C 906.493,612.984 906.826,621.651 906.5,630.5C 886.596,633.595 866.596,634.262 846.5,632.5C 836.549,630.346 826.549,627.846 816.5,625C 810.44,623.136 804.774,620.47 799.5,617C 790.43,606.946 791.764,598.612 803.5,592C 808.38,589.393 813.38,587.06 818.5,585C 848.046,574.651 877.712,564.818 907.5,555.5C 907.5,565.5 907.5,575.5 907.5,585.5C 886.162,591.587 865.162,598.754 844.5,607C 841.719,610.807 842.719,613.474 847.5,615C 855.833,615.667 864.167,615.667 872.5,615C 883.549,611.595 894.549,608.095 905.5,604.5 Z"/></g>
<g><path style="opacity:1" fill="#d13d3e" d="M 209.5,557.5 C 212.805,561.141 216.138,564.808 219.5,568.5C 214.775,566.108 211.442,562.441 209.5,557.5 Z"/></g>
<g><path style="opacity:1" fill="#254c91" d="M 1085.5,572.5 C 1064.66,568.942 1043.66,567.609 1022.5,568.5C 1023.26,567.732 1024.26,567.232 1025.5,567C 1037.5,566.333 1049.5,566.333 1061.5,567C 1069.98,567.848 1077.98,569.681 1085.5,572.5 Z"/></g>
<g><path style="opacity:1" fill="#fcfdfe" d="M 1022.5,568.5 C 1043.66,567.609 1064.66,568.942 1085.5,572.5C 1096.88,575.572 1107.88,579.738 1118.5,585C 1120.04,586.707 1121.7,588.207 1123.5,589.5C 1127.09,596.896 1125.75,603.229 1119.5,608.5C 1117.97,608.427 1116.97,609.094 1116.5,610.5C 1109.8,613.521 1103.13,616.521 1096.5,619.5C 1090.05,621.096 1083.71,623.096 1077.5,625.5C 1071.61,627.129 1065.94,629.129 1060.5,631.5C 1048.44,635.296 1036.44,639.296 1024.5,643.5C 1013.02,647.326 1001.68,651.326 990.5,655.5C 988.063,655.756 985.729,656.423 983.5,657.5C 982.501,647.522 982.168,637.522 982.5,627.5C 1013.65,617.505 1044.65,607.005 1075.5,596C 1078.81,591.321 1077.47,588.655 1071.5,588C 1063.8,586.371 1056.14,586.204 1048.5,587.5C 1043.84,588.057 1039.5,589.39 1035.5,591.5C 1019.03,596.435 1002.69,601.769 986.5,607.5C 985.417,607.539 984.417,607.873 983.5,608.5C 982.501,598.188 982.168,587.855 982.5,577.5C 995.735,573.522 1009.07,570.522 1022.5,568.5 Z"/></g>
<g><path style="opacity:1" fill="#d22226" d="M 410.5,560.5 C 408.005,564.798 405.005,568.798 401.5,572.5C 398.385,574.392 395.051,575.725 391.5,576.5C 398.394,571.948 404.728,566.615 410.5,560.5 Z"/></g>
<g><path style="opacity:1" fill="#267226" d="M 1518.5,580.5 C 1534.99,579.338 1551.66,579.172 1568.5,580C 1572.93,580.587 1577.26,581.587 1581.5,583C 1582.25,583.671 1582.59,584.504 1582.5,585.5C 1577.42,583.13 1572.09,581.63 1566.5,581C 1550.5,580.5 1534.5,580.333 1518.5,580.5 Z"/></g>
<g><path style="opacity:1" fill="#cc272c" d="M 391.5,576.5 C 390.426,577.885 389.093,579.051 387.5,580C 382.314,581.785 376.98,582.618 371.5,582.5C 374.931,581.865 378.264,580.865 381.5,579.5C 384.823,578.508 388.156,577.508 391.5,576.5 Z"/></g>
<g><path style="opacity:1" fill="#6383b2" d="M 982.5,577.5 C 982.168,587.855 982.501,598.188 983.5,608.5C 984.417,607.873 985.417,607.539 986.5,607.5C 985.365,609.213 983.698,609.88 981.5,609.5C 981.172,598.654 981.506,587.987 982.5,577.5 Z"/></g>
<g><path style="opacity:1" fill="#f8fdf8" d="M 1638.5,578.5 C 1678.19,577.021 1696.69,596.021 1694,635.5C 1687.49,663.855 1669.65,676.688 1640.5,674C 1620.09,670.925 1607.26,659.425 1602,639.5C 1596.35,608.09 1608.52,587.757 1638.5,578.5 Z"/></g>
<g><path style="opacity:1" fill="#b9ecb9" d="M 1758.5,581.5 C 1763.68,580.185 1769.01,580.185 1774.5,581.5C 1774.38,582.107 1774.04,582.44 1773.5,582.5C 1768.69,581.513 1763.69,581.179 1758.5,581.5 Z"/></g>
<g><path style="opacity:1" fill="#ba323c" d="M 307.5,581.5 C 307.5,582.167 307.5,582.833 307.5,583.5C 288.659,583.83 269.993,583.497 251.5,582.5C 270.243,582.82 288.91,582.486 307.5,581.5 Z"/></g>
<g><path style="opacity:1" fill="#f8fdf8" d="M 1437.5,671.5 C 1432.38,672.103 1427.71,671.436 1423.5,669.5C 1434.81,654.519 1446.14,639.519 1457.5,624.5C 1446.69,609.858 1435.69,595.358 1424.5,581C 1429.83,580.333 1435.17,580.333 1440.5,581C 1449.12,591.743 1457.62,602.576 1466,613.5C 1474.12,602.38 1482.62,591.546 1491.5,581C 1496.83,580.333 1502.17,580.333 1507.5,581C 1496.31,595.358 1485.31,609.858 1474.5,624.5C 1486.38,640.423 1498.38,656.256 1510.5,672C 1504.8,672.83 1499.14,672.663 1493.5,671.5C 1484.53,659.358 1475.36,647.358 1466,635.5C 1456.64,647.687 1447.14,659.687 1437.5,671.5 Z"/></g>
<g><path style="opacity:1" fill="#f9fdf9" d="M 1518.5,580.5 C 1534.5,580.333 1550.5,580.5 1566.5,581C 1572.09,581.63 1577.42,583.13 1582.5,585.5C 1591.86,593.818 1594.02,603.818 1589,615.5C 1586.83,619 1584,621.833 1580.5,624C 1594.97,631.765 1599.13,643.265 1593,658.5C 1590.3,662.361 1587.14,665.694 1583.5,668.5C 1578.92,669.955 1574.25,671.122 1569.5,672C 1552.5,672.5 1535.5,672.667 1518.5,672.5C 1518.83,658.656 1518.5,644.99 1517.5,631.5C 1510.8,631.83 1504.13,631.497 1497.5,630.5C 1500.08,627.651 1502.42,624.651 1504.5,621.5C 1509.3,620.94 1513.97,620.273 1518.5,619.5C 1518.5,606.5 1518.5,593.5 1518.5,580.5 Z"/></g>
<g><path style="opacity:1" fill="#f8fdf8" d="M 1758.5,581.5 C 1763.69,581.179 1768.69,581.513 1773.5,582.5C 1762.84,596.47 1752.18,610.47 1741.5,624.5C 1752.86,639.519 1764.19,654.519 1775.5,669.5C 1771.29,671.436 1766.62,672.103 1761.5,671.5C 1751.86,659.687 1742.36,647.687 1733,635.5C 1723.64,647.358 1714.47,659.358 1705.5,671.5C 1699.86,672.663 1694.2,672.83 1688.5,672C 1700.62,656.256 1712.62,640.423 1724.5,624.5C 1713.69,609.858 1702.69,595.358 1691.5,581C 1697.2,580.17 1702.86,580.337 1708.5,581.5C 1716.42,592.347 1724.59,603.013 1733,613.5C 1741.28,602.581 1749.78,591.915 1758.5,581.5 Z"/></g>
<g><path style="opacity:1" fill="#d10d1a" d="M 234.5,578.5 C 235.167,578.5 235.833,578.5 236.5,578.5C 241.138,580.783 246.138,582.116 251.5,582.5C 269.993,583.497 288.659,583.83 307.5,583.5C 284.573,584.638 261.573,584.638 238.5,583.5C 237.047,581.815 235.714,580.149 234.5,578.5 Z"/></g>
<g><path style="opacity:1" fill="#395b96" d="M 1048.5,587.5 C 1044.5,589.61 1040.16,590.943 1035.5,591.5C 1039.5,589.39 1043.84,588.057 1048.5,587.5 Z"/></g>
<g><path style="opacity:1" fill="#70a470" d="M 1565.5,593.5 C 1554.83,593.5 1544.17,593.5 1533.5,593.5C 1533.5,602.167 1533.5,610.833 1533.5,619.5C 1532.51,610.682 1532.17,601.682 1532.5,592.5C 1543.68,592.172 1554.68,592.505 1565.5,593.5 Z"/></g>
<g><path style="opacity:1" fill="#137a13" d="M 1638.5,591.5 C 1667.94,589.437 1681.44,603.103 1679,632.5C 1675,655.134 1661.5,664.634 1638.5,661C 1623.08,654.506 1615.75,642.839 1616.5,626C 1615.67,609.131 1623,597.631 1638.5,591.5 Z"/></g>
<g><path style="opacity:1" fill="#20741f" d="M 1565.5,593.5 C 1568.35,593.552 1570.68,594.552 1572.5,596.5C 1559.93,594.708 1547.27,594.042 1534.5,594.5C 1534.5,602.5 1534.5,610.5 1534.5,618.5C 1545.51,618.667 1556.51,618.5 1567.5,618C 1569.02,616.991 1570.69,616.491 1572.5,616.5C 1571.4,617.558 1570.07,618.392 1568.5,619C 1556.84,619.5 1545.17,619.667 1533.5,619.5C 1533.5,610.833 1533.5,602.167 1533.5,593.5C 1544.17,593.5 1554.83,593.5 1565.5,593.5 Z"/></g>
<g><path style="opacity:1" fill="#117b12" d="M 1572.5,596.5 C 1577.19,599.988 1578.69,604.655 1577,610.5C 1576.21,613.106 1574.71,615.106 1572.5,616.5C 1570.69,616.491 1569.02,616.991 1567.5,618C 1556.51,618.5 1545.51,618.667 1534.5,618.5C 1534.5,610.5 1534.5,602.5 1534.5,594.5C 1547.27,594.042 1559.93,594.708 1572.5,596.5 Z"/></g>
<g><path style="opacity:1" fill="#274f94" d="M 1123.5,589.5 C 1124.5,589.414 1125.33,589.748 1126,590.5C 1126.67,594.833 1126.67,599.167 1126,603.5C 1124.22,605.79 1122.06,607.457 1119.5,608.5C 1125.75,603.229 1127.09,596.896 1123.5,589.5 Z"/></g>
<g><path style="opacity:1" fill="#7c9ac4" d="M 905.5,604.5 C 905.842,603.662 906.508,603.328 907.5,603.5C 907.827,612.682 907.493,621.682 906.5,630.5C 906.826,621.651 906.493,612.984 905.5,604.5 Z"/></g>
<g><path style="opacity:1" fill="#fff1f2" d="M 468.5,637.5 C 465.174,639.61 461.508,640.943 457.5,641.5C 453.936,640.717 450.603,639.384 447.5,637.5C 447.167,636.5 446.5,635.833 445.5,635.5C 442.237,628.942 442.904,622.942 447.5,617.5C 455.486,611.714 462.986,612.381 470,619.5C 473.619,625.875 473.119,631.875 468.5,637.5 Z"/></g>
<g><path style="opacity:1" fill="#244d91" d="M 1116.5,610.5 C 1110.99,615.58 1104.32,618.58 1096.5,619.5C 1103.13,616.521 1109.8,613.521 1116.5,610.5 Z"/></g>
<g><path style="opacity:1" fill="#c41c23" d="M 155.5,614.5 C 153.833,614.5 152.167,614.5 150.5,614.5C 149.507,622.65 149.174,630.983 149.5,639.5C 148.507,631.016 148.174,622.349 148.5,613.5C 151.059,613.198 153.393,613.532 155.5,614.5 Z"/></g>
<g><path style="opacity:1" fill="#c51a24" d="M 240.5,614.5 C 242.607,613.532 244.941,613.198 247.5,613.5C 247.826,622.349 247.493,631.016 246.5,639.5C 246.826,630.983 246.493,622.65 245.5,614.5C 243.833,614.5 242.167,614.5 240.5,614.5 Z"/></g>
<g><path style="opacity:1" fill="#c51f26" d="M 377.5,639.5 C 377.826,630.983 377.493,622.65 376.5,614.5C 374.833,614.5 373.167,614.5 371.5,614.5C 371.666,619.844 371.499,625.177 371,630.5C 369.158,628.136 367.325,625.803 365.5,623.5C 368.068,623.594 369.568,624.928 370,627.5C 370.499,622.845 370.666,618.179 370.5,613.5C 373.167,613.5 375.833,613.5 378.5,613.5C 378.826,622.349 378.493,631.016 377.5,639.5 Z"/></g>
<g><path style="opacity:1" fill="#fef7f8" d="M 150.5,614.5 C 152.167,614.5 153.833,614.5 155.5,614.5C 158.271,618.39 161.271,622.057 164.5,625.5C 165.752,627.001 166.752,628.668 167.5,630.5C 167.56,631.043 167.893,631.376 168.5,631.5C 169.495,625.872 169.829,620.206 169.5,614.5C 170.833,614.5 172.167,614.5 173.5,614.5C 173.5,622.833 173.5,631.167 173.5,639.5C 171.833,639.5 170.167,639.5 168.5,639.5C 166.068,636.312 163.401,633.312 160.5,630.5C 159.551,628.223 158.218,626.223 156.5,624.5C 156.44,623.957 156.107,623.624 155.5,623.5C 154.505,628.792 154.172,634.125 154.5,639.5C 153.167,639.5 151.833,639.5 150.5,639.5C 150.5,631.167 150.5,622.833 150.5,614.5 Z"/></g>
<g><path style="opacity:1" fill="#feadb8" d="M 173.5,614.5 C 174.493,622.65 174.826,630.983 174.5,639.5C 172.5,640.833 170.5,640.833 168.5,639.5C 170.167,639.5 171.833,639.5 173.5,639.5C 173.5,631.167 173.5,622.833 173.5,614.5 Z"/></g>
<g><path style="opacity:1" fill="#bc1a25" d="M 174.5,639.5 C 174.826,630.983 174.493,622.65 173.5,614.5C 172.167,614.5 170.833,614.5 169.5,614.5C 168.833,619.833 168.167,625.167 167.5,630.5C 166.752,628.668 165.752,627.001 164.5,625.5C 165.496,625.414 166.329,625.748 167,626.5C 167.499,622.179 167.666,617.846 167.5,613.5C 170.167,613.5 172.833,613.5 175.5,613.5C 175.826,622.349 175.493,631.016 174.5,639.5 Z"/></g>
<g><path style="opacity:1" fill="#d6302e" d="M 194.5,612.5 C 196.833,612.5 199.167,612.5 201.5,612.5C 201.5,622.5 201.5,632.5 201.5,642.5C 198.398,642.846 195.565,642.179 193,640.5C 191.905,630.909 192.405,621.575 194.5,612.5 Z"/></g>
<g><path style="opacity:1" fill="#fef4f6" d="M 195.5,614.5 C 197.167,614.5 198.833,614.5 200.5,614.5C 200.5,622.833 200.5,631.167 200.5,639.5C 198.833,639.5 197.167,639.5 195.5,639.5C 195.5,631.167 195.5,622.833 195.5,614.5 Z"/></g>
<g><path style="opacity:1" fill="#c21c24" d="M 227.5,614.5 C 225.5,614.5 223.5,614.5 221.5,614.5C 221.5,622.833 221.5,631.167 221.5,639.5C 220.507,631.016 220.174,622.349 220.5,613.5C 223.059,613.198 225.393,613.532 227.5,614.5 Z"/></g>
<g><path style="opacity:1" fill="#fef4f6" d="M 227.5,614.5 C 230.833,618.833 234.167,623.167 237.5,627.5C 238.122,628.627 238.955,629.627 240,630.5C 240.499,625.177 240.666,619.844 240.5,614.5C 242.167,614.5 243.833,614.5 245.5,614.5C 245.5,622.833 245.5,631.167 245.5,639.5C 243.833,639.5 242.167,639.5 240.5,639.5C 240.167,639.5 239.833,639.5 239.5,639.5C 236.244,634.238 232.578,629.238 228.5,624.5C 228.44,623.957 228.107,623.624 227.5,623.5C 226.505,628.792 226.172,634.125 226.5,639.5C 224.833,639.5 223.167,639.5 221.5,639.5C 221.5,631.167 221.5,622.833 221.5,614.5C 223.5,614.5 225.5,614.5 227.5,614.5 Z"/></g>
<g><path style="opacity:1" fill="#ff9098" d="M 245.5,614.5 C 246.493,622.65 246.826,630.983 246.5,639.5C 244.5,640.833 242.5,640.833 240.5,639.5C 242.167,639.5 243.833,639.5 245.5,639.5C 245.5,631.167 245.5,622.833 245.5,614.5 Z"/></g>
<g><path style="opacity:1" fill="#fef7f8" d="M 265.5,614.5 C 273.167,614.5 280.833,614.5 288.5,614.5C 288.5,616.167 288.5,617.833 288.5,619.5C 285.833,619.5 283.167,619.5 280.5,619.5C 279.509,625.979 279.176,632.646 279.5,639.5C 277.833,639.5 276.167,639.5 274.5,639.5C 274.5,632.833 274.5,626.167 274.5,619.5C 271.5,619.5 268.5,619.5 265.5,619.5C 265.5,617.833 265.5,616.167 265.5,614.5 Z"/></g>
<g><path style="opacity:1" fill="#ffacb4" d="M 309.5,614.5 C 309.5,622.833 309.5,631.167 309.5,639.5C 316.167,639.5 322.833,639.5 329.5,639.5C 329.5,638.167 329.5,636.833 329.5,635.5C 329.833,635.5 330.167,635.5 330.5,635.5C 330.5,637.167 330.5,638.833 330.5,640.5C 323.167,640.5 315.833,640.5 308.5,640.5C 308.174,631.651 308.507,622.984 309.5,614.5 Z"/></g>
<g><path style="opacity:1" fill="#fff4f5" d="M 309.5,614.5 C 316.167,614.5 322.833,614.5 329.5,614.5C 329.5,615.833 329.5,617.167 329.5,618.5C 324.305,618.179 319.305,618.513 314.5,619.5C 314.5,621.167 314.5,622.833 314.5,624.5C 319.167,624.5 323.833,624.5 328.5,624.5C 328.5,626.167 328.5,627.833 328.5,629.5C 323.833,629.5 319.167,629.5 314.5,629.5C 314.5,631.5 314.5,633.5 314.5,635.5C 319.5,635.5 324.5,635.5 329.5,635.5C 329.5,636.833 329.5,638.167 329.5,639.5C 322.833,639.5 316.167,639.5 309.5,639.5C 309.5,631.167 309.5,622.833 309.5,614.5 Z"/></g>
<g><path style="opacity:1" fill="#fef6f7" d="M 353.5,614.5 C 355.167,614.5 356.833,614.5 358.5,614.5C 360.592,617.681 362.925,620.681 365.5,623.5C 367.325,625.803 369.158,628.136 371,630.5C 371.499,625.177 371.666,619.844 371.5,614.5C 373.167,614.5 374.833,614.5 376.5,614.5C 376.5,622.833 376.5,631.167 376.5,639.5C 374.833,639.5 373.167,639.5 371.5,639.5C 370.527,637.861 369.194,636.527 367.5,635.5C 365.087,631.686 362.421,628.019 359.5,624.5C 359.44,623.957 359.107,623.624 358.5,623.5C 357.505,628.792 357.172,634.125 357.5,639.5C 356.167,639.5 354.833,639.5 353.5,639.5C 353.5,631.167 353.5,622.833 353.5,614.5 Z"/></g>
<g><path style="opacity:1" fill="#fca7ae" d="M 376.5,614.5 C 377.493,622.65 377.826,630.983 377.5,639.5C 375.5,640.833 373.5,640.833 371.5,639.5C 373.167,639.5 374.833,639.5 376.5,639.5C 376.5,631.167 376.5,622.833 376.5,614.5 Z"/></g>
<g><path style="opacity:1" fill="#fef6f7" d="M 418.5,616.5 C 425.54,620.286 427.374,625.953 424,633.5C 422.293,635.037 420.793,636.704 419.5,638.5C 417.565,639.15 415.565,639.483 413.5,639.5C 409.5,639.5 405.5,639.5 401.5,639.5C 401.5,631.5 401.5,623.5 401.5,615.5C 407.196,615.447 412.862,615.78 418.5,616.5 Z"/></g>
<g><path style="opacity:1" fill="#d22528" d="M 415.5,614.5 C 418.721,615.505 422.054,616.339 425.5,617C 426.629,622.566 426.629,628.4 425.5,634.5C 423.736,636.278 421.736,637.611 419.5,638.5C 420.793,636.704 422.293,635.037 424,633.5C 427.374,625.953 425.54,620.286 418.5,616.5C 417.5,615.833 416.5,615.167 415.5,614.5 Z"/></g>
<g><path style="opacity:1" fill="#f18a91" d="M 329.5,614.5 C 330.833,616.167 330.833,617.833 329.5,619.5C 324.5,619.5 319.5,619.5 314.5,619.5C 319.305,618.513 324.305,618.179 329.5,618.5C 329.5,617.167 329.5,615.833 329.5,614.5 Z"/></g>
<g><path style="opacity:1" fill="#b7dcb8" d="M 1518.5,619.5 C 1513.97,620.273 1509.3,620.94 1504.5,621.5C 1504.61,620.883 1504.94,620.383 1505.5,620C 1509.82,619.501 1514.15,619.334 1518.5,619.5 Z"/></g>
<g><path style="opacity:1" fill="#ac232b" d="M 240.5,614.5 C 240.666,619.844 240.499,625.177 240,630.5C 238.955,629.627 238.122,628.627 237.5,627.5C 239.135,623.427 240.135,619.094 240.5,614.5 Z"/></g>
<g><path style="opacity:1" fill="#d12429" d="M 447.5,617.5 C 442.904,622.942 442.237,628.942 445.5,635.5C 444.542,635.047 443.708,634.381 443,633.5C 442.333,628.833 442.333,624.167 443,619.5C 444.049,617.893 445.549,617.227 447.5,617.5 Z"/></g>
<g><path style="opacity:1" fill="#dd161c" d="M 453.5,619.5 C 457.839,618.846 461.673,619.846 465,622.5C 467.385,631.456 463.885,635.622 454.5,635C 448.265,630.192 447.931,625.026 453.5,619.5 Z"/></g>
<g><path style="opacity:1" fill="#feb7be" d="M 150.5,614.5 C 150.5,622.833 150.5,631.167 150.5,639.5C 151.833,639.5 153.167,639.5 154.5,639.5C 154.172,634.125 154.505,628.792 155.5,623.5C 156.107,623.624 156.44,623.957 156.5,624.5C 155.513,629.305 155.179,634.305 155.5,639.5C 153.5,640.833 151.5,640.833 149.5,639.5C 149.174,630.983 149.507,622.65 150.5,614.5 Z"/></g>
<g><path style="opacity:1" fill="#fea1aa" d="M 280.5,619.5 C 280.5,626.5 280.5,633.5 280.5,640.5C 278.265,640.795 276.265,640.461 274.5,639.5C 276.167,639.5 277.833,639.5 279.5,639.5C 279.176,632.646 279.509,625.979 280.5,619.5 Z"/></g>
<g><path style="opacity:1" fill="#ffbcc3" d="M 169.5,614.5 C 169.829,620.206 169.495,625.872 168.5,631.5C 167.893,631.376 167.56,631.043 167.5,630.5C 168.167,625.167 168.833,619.833 169.5,614.5 Z"/></g>
<g><path style="opacity:1" fill="#c84852" d="M 265.5,619.5 C 268.5,619.5 271.5,619.5 274.5,619.5C 274.5,626.167 274.5,632.833 274.5,639.5C 274.167,639.5 273.833,639.5 273.5,639.5C 273.5,633.167 273.5,626.833 273.5,620.5C 270.615,620.806 267.948,620.473 265.5,619.5 Z"/></g>
<g><path style="opacity:1" fill="#ff97a0" d="M 195.5,614.5 C 195.5,622.833 195.5,631.167 195.5,639.5C 197.167,639.5 198.833,639.5 200.5,639.5C 198.735,640.461 196.735,640.795 194.5,640.5C 194.174,631.651 194.507,622.984 195.5,614.5 Z"/></g>
<g><path style="opacity:1" fill="#cf2328" d="M 265.5,614.5 C 273.65,613.507 281.983,613.174 290.5,613.5C 292.167,620.5 289.5,623.167 282.5,621.5C 282.666,627.842 282.5,634.175 282,640.5C 279.519,642.314 276.685,642.98 273.5,642.5C 273.5,641.5 273.5,640.5 273.5,639.5C 273.833,639.5 274.167,639.5 274.5,639.5C 276.265,640.461 278.265,640.795 280.5,640.5C 280.5,633.5 280.5,626.5 280.5,619.5C 283.167,619.5 285.833,619.5 288.5,619.5C 288.5,617.833 288.5,616.167 288.5,614.5C 280.833,614.5 273.167,614.5 265.5,614.5 Z"/></g>
<g><path style="opacity:1" fill="#c21822" d="M 314.5,619.5 C 319.5,619.5 324.5,619.5 329.5,619.5C 312.496,620.947 312.496,622.113 329.5,623C 331.1,625.64 330.766,627.807 328.5,629.5C 328.5,627.833 328.5,626.167 328.5,624.5C 323.833,624.5 319.167,624.5 314.5,624.5C 314.5,622.833 314.5,621.167 314.5,619.5 Z"/></g>
<g><path style="opacity:1" fill="#f0737c" d="M 414.5,620.5 C 411.833,620.5 409.167,620.5 406.5,620.5C 406.5,625.167 406.5,629.833 406.5,634.5C 408.833,634.5 411.167,634.5 413.5,634.5C 411.052,635.473 408.385,635.806 405.5,635.5C 405.5,630.167 405.5,624.833 405.5,619.5C 408.713,619.19 411.713,619.523 414.5,620.5 Z"/></g>
<g><path style="opacity:1" fill="#d4141d" d="M 414.5,620.5 C 417.845,621.348 419.512,623.515 419.5,627C 419.274,630.966 417.274,633.466 413.5,634.5C 411.167,634.5 408.833,634.5 406.5,634.5C 406.5,629.833 406.5,625.167 406.5,620.5C 409.167,620.5 411.833,620.5 414.5,620.5 Z"/></g>
<g><path style="opacity:1" fill="#e50012" d="M 407.5,621.5 C 410.249,621.274 412.916,621.607 415.5,622.5C 415.823,625.705 415.823,629.038 415.5,632.5C 412.833,632.5 410.167,632.5 407.5,632.5C 407.5,628.833 407.5,625.167 407.5,621.5 Z"/></g>
<g><path style="opacity:1" fill="#c7272c" d="M 156.5,624.5 C 158.218,626.223 159.551,628.223 160.5,630.5C 159.206,629.71 158.039,628.71 157,627.5C 156.824,631.688 156.324,635.688 155.5,639.5C 155.179,634.305 155.513,629.305 156.5,624.5 Z"/></g>
<g><path style="opacity:1" fill="#c82127" d="M 228.5,624.5 C 232.578,629.238 236.244,634.238 239.5,639.5C 235.782,635.759 232.282,631.759 229,627.5C 228.824,631.688 228.324,635.688 227.5,639.5C 227.179,634.305 227.513,629.305 228.5,624.5 Z"/></g>
<g><path style="opacity:1" fill="#feacb5" d="M 353.5,614.5 C 353.5,622.833 353.5,631.167 353.5,639.5C 354.833,639.5 356.167,639.5 357.5,639.5C 357.172,634.125 357.505,628.792 358.5,623.5C 359.107,623.624 359.44,623.957 359.5,624.5C 358.512,629.64 358.179,634.974 358.5,640.5C 356.5,640.5 354.5,640.5 352.5,640.5C 352.174,631.651 352.507,622.984 353.5,614.5 Z"/></g>
<g><path style="opacity:1" fill="#cb171f" d="M 358.5,614.5 C 356.833,614.5 355.167,614.5 353.5,614.5C 352.507,622.984 352.174,631.651 352.5,640.5C 354.5,640.5 356.5,640.5 358.5,640.5C 358.179,634.974 358.512,629.64 359.5,624.5C 362.421,628.019 365.087,631.686 367.5,635.5C 365.188,633.854 363.188,631.854 361.5,629.5C 360.803,633.377 360.136,637.21 359.5,641C 355.979,643.428 353.145,642.928 351,639.5C 350.333,630.833 350.333,622.167 351,613.5C 352.231,612.892 353.564,612.559 355,612.5C 356.681,612.608 357.848,613.275 358.5,614.5 Z"/></g>
<g><path style="opacity:1" fill="#2a5194" d="M 1077.5,625.5 C 1077.18,627.132 1076.18,628.132 1074.5,628.5C 1069.93,630.013 1065.27,631.013 1060.5,631.5C 1065.94,629.129 1071.61,627.129 1077.5,625.5 Z"/></g>
<g><path style="opacity:1" fill="#ffdbe2" d="M 415.5,614.5 C 416.5,615.167 417.5,615.833 418.5,616.5C 412.862,615.78 407.196,615.447 401.5,615.5C 401.5,623.5 401.5,631.5 401.5,639.5C 405.5,639.5 409.5,639.5 413.5,639.5C 409.366,640.485 405.032,640.818 400.5,640.5C 400.5,631.833 400.5,623.167 400.5,614.5C 405.5,614.5 410.5,614.5 415.5,614.5 Z"/></g>
<g><path style="opacity:1" fill="#bb1924" d="M 328.5,629.5 C 324.366,630.485 320.032,630.818 315.5,630.5C 315.5,631.833 315.5,633.167 315.5,634.5C 320.363,634.181 325.03,634.514 329.5,635.5C 324.5,635.5 319.5,635.5 314.5,635.5C 314.5,633.5 314.5,631.5 314.5,629.5C 319.167,629.5 323.833,629.5 328.5,629.5 Z"/></g>
<g><path style="opacity:1" fill="#f79ca4" d="M 228.5,624.5 C 227.513,629.305 227.179,634.305 227.5,639.5C 225.5,640.833 223.5,640.833 221.5,639.5C 223.167,639.5 224.833,639.5 226.5,639.5C 226.172,634.125 226.505,628.792 227.5,623.5C 228.107,623.624 228.44,623.957 228.5,624.5 Z"/></g>
<g><path style="opacity:1" fill="#137a13" d="M 1533.5,631.5 C 1545.5,631.333 1557.5,631.5 1569.5,632C 1579.64,634.767 1583.14,641.267 1580,651.5C 1577.38,656.56 1573.22,659.226 1567.5,659.5C 1556.17,659.5 1544.83,659.5 1533.5,659.5C 1533.5,650.167 1533.5,640.833 1533.5,631.5 Z"/></g>
<g><path style="opacity:1" fill="#1c488d" d="M 907.5,603.5 C 908.828,612.902 908.828,622.402 907.5,632C 904.3,632.101 901.3,632.768 898.5,634C 881.833,634.667 865.167,634.667 848.5,634C 847.584,633.722 846.918,633.222 846.5,632.5C 866.596,634.262 886.596,633.595 906.5,630.5C 907.493,621.682 907.827,612.682 907.5,603.5 Z"/></g>
<g><path style="opacity:1" fill="#cf181f" d="M 329.5,614.5 C 322.833,614.5 316.167,614.5 309.5,614.5C 308.507,622.984 308.174,631.651 308.5,640.5C 315.833,640.5 323.167,640.5 330.5,640.5C 330.5,638.833 330.5,637.167 330.5,635.5C 333.209,637.683 333.709,640.349 332,643.5C 323.919,642.518 315.752,642.184 307.5,642.5C 306.412,632.868 306.245,623.201 307,613.5C 310.75,612.85 314.584,612.517 318.5,612.5C 322.565,612.511 326.232,613.178 329.5,614.5 Z"/></g>
<g><path style="opacity:1" fill="#cd1921" d="M 447.5,637.5 C 450.603,639.384 453.936,640.717 457.5,641.5C 461.508,640.943 465.174,639.61 468.5,637.5C 468.5,638.5 468.5,639.5 468.5,640.5C 465.053,641.879 461.386,642.546 457.5,642.5C 452.961,642.894 449.628,641.227 447.5,637.5 Z"/></g>
<g><path style="opacity:1" fill="#d03737" d="M 405.5,655.5 C 396.29,651.938 386.957,651.604 377.5,654.5C 379.364,652.782 381.697,651.615 384.5,651C 391.021,650.071 397.354,650.737 403.5,653C 404.381,653.708 405.047,654.542 405.5,655.5 Z"/></g>
<g><path style="opacity:1" fill="#d54242" d="M 184.5,654.5 C 177.869,653.669 171.202,653.336 164.5,653.5C 164.5,653.167 164.5,652.833 164.5,652.5C 170.796,651.356 177.13,651.522 183.5,653C 184.056,653.383 184.389,653.883 184.5,654.5 Z"/></g>
<g><path style="opacity:1" fill="#c81a23" d="M 244.5,659.5 C 243.262,657.786 242.595,655.786 242.5,653.5C 239.102,653.18 235.768,653.513 232.5,654.5C 231.972,656.336 231.306,658.003 230.5,659.5C 229.16,653.507 231.493,651.173 237.5,652.5C 243.507,651.173 245.84,653.507 244.5,659.5 Z"/></g>
<g><path style="opacity:1" fill="#2a5192" d="M 1024.5,643.5 C 1024.2,644.15 1023.86,644.817 1023.5,645.5C 1015.29,647.847 1007.29,650.681 999.5,654C 996.522,654.696 993.522,655.196 990.5,655.5C 1001.68,651.326 1013.02,647.326 1024.5,643.5 Z"/></g>
<g><path style="opacity:1" fill="#fff6f7" d="M 405.5,655.5 C 407.498,657.6 409.665,659.6 412,661.5C 412.667,662.5 412.667,663.5 412,664.5C 409.372,666.126 407.039,668.126 405,670.5C 403.629,668.959 402.129,667.625 400.5,666.5C 399.942,665.21 398.942,664.377 397.5,664C 392.603,661.872 387.936,662.038 383.5,664.5C 374.264,669.595 372.097,676.928 377,686.5C 378.777,688.79 380.944,690.457 383.5,691.5C 389.003,694.314 394.336,693.98 399.5,690.5C 401.385,689.301 403.218,687.967 405,686.5C 407.323,688.152 409.656,689.819 412,691.5C 412.667,692.5 412.667,693.5 412,694.5C 396.995,708.136 382.328,707.802 368,693.5C 359.277,677.308 362.444,664.308 377.5,654.5C 386.957,651.604 396.29,651.938 405.5,655.5 Z"/></g>
<g><path style="opacity:1" fill="#dc2b2b" d="M 458.5,670.5 C 451.352,671.492 444.019,671.825 436.5,671.5C 436.823,665.31 436.49,659.31 435.5,653.5C 432.167,653.5 428.833,653.5 425.5,653.5C 425.5,669.833 425.5,686.167 425.5,702.5C 428.833,702.5 432.167,702.5 435.5,702.5C 435.389,703.117 435.056,703.617 434.5,704C 430.775,704.76 427.108,704.593 423.5,703.5C 422.501,686.513 422.167,669.513 422.5,652.5C 427.5,652.5 432.5,652.5 437.5,652.5C 437.5,658.5 437.5,664.5 437.5,670.5C 444.5,670.5 451.5,670.5 458.5,670.5 Z"/></g>
<g><path style="opacity:1" fill="#fff6f7" d="M 164.5,653.5 C 171.202,653.336 177.869,653.669 184.5,654.5C 186.556,655.199 188.556,656.199 190.5,657.5C 189.5,659.5 188.5,661.5 187.5,663.5C 186.311,664.429 184.978,664.762 183.5,664.5C 176.497,661.18 169.163,660.68 161.5,663C 158.141,665.034 157.808,667.368 160.5,670C 168.32,672.582 176.32,674.415 184.5,675.5C 188.043,677.202 191.21,679.535 194,682.5C 196.681,690.652 194.181,696.819 186.5,701C 176.261,703.895 165.928,704.228 155.5,702C 147.092,699.654 146.426,695.821 153.5,690.5C 155.734,692.446 158.401,693.613 161.5,694C 166.833,694.667 172.167,694.667 177.5,694C 179.058,693.79 180.391,693.29 181.5,692.5C 184.973,690.437 185.306,687.937 182.5,685C 181.552,684.517 180.552,684.351 179.5,684.5C 179.082,683.778 178.416,683.278 177.5,683C 172.123,682.304 166.79,681.47 161.5,680.5C 156.318,679.082 151.985,676.415 148.5,672.5C 148.5,669.5 148.5,666.5 148.5,663.5C 149.401,662.71 150.068,661.71 150.5,660.5C 154.317,656.591 158.984,654.258 164.5,653.5 Z"/></g>
<g><path style="opacity:1" fill="#fef7f8" d="M 201.5,653.5 C 205.167,653.5 208.833,653.5 212.5,653.5C 215.039,662.45 217.373,671.45 219.5,680.5C 220.32,682.812 221.153,685.146 222,687.5C 223.654,684.707 224.821,681.707 225.5,678.5C 227.774,672.342 229.441,666.008 230.5,659.5C 231.306,658.003 231.972,656.336 232.5,654.5C 235.768,653.513 239.102,653.18 242.5,653.5C 242.595,655.786 243.262,657.786 244.5,659.5C 246.054,666.074 248.054,672.407 250.5,678.5C 250.865,681.625 251.698,684.625 253,687.5C 253.813,685.564 254.313,683.564 254.5,681.5C 258.038,672.514 260.705,663.18 262.5,653.5C 266.167,653.5 269.833,653.5 273.5,653.5C 272.573,658.613 271.24,663.613 269.5,668.5C 268.09,672.397 267.09,676.397 266.5,680.5C 264.002,687.329 261.668,694.329 259.5,701.5C 255.285,702.798 251.118,702.798 247,701.5C 244.329,691.321 241.162,681.321 237.5,671.5C 235.691,674.593 234.691,677.926 234.5,681.5C 231.987,688.373 229.654,695.373 227.5,702.5C 223.5,702.5 219.5,702.5 215.5,702.5C 215.072,699.215 214.072,696.215 212.5,693.5C 211.408,687.567 209.741,681.9 207.5,676.5C 207.5,675.833 207.5,675.167 207.5,674.5C 204.744,667.725 202.744,660.725 201.5,653.5 Z"/></g>
<g><path style="opacity:1" fill="#cd3032" d="M 262.5,653.5 C 260.705,663.18 258.038,672.514 254.5,681.5C 254.338,679.473 254.505,677.473 255,675.5C 257.326,667.917 259.826,660.584 262.5,653.5 Z"/></g>
<g><path style="opacity:1" fill="#fefdfd" d="M 287.5,654.5 C 290.833,654.5 294.167,654.5 297.5,654.5C 297.5,670.167 297.5,685.833 297.5,701.5C 294.167,701.5 290.833,701.5 287.5,701.5C 287.5,685.833 287.5,670.167 287.5,654.5 Z"/></g>
<g><path style="opacity:1" fill="#fee2e9" d="M 287.5,654.5 C 290.962,653.518 294.629,653.185 298.5,653.5C 298.5,669.833 298.5,686.167 298.5,702.5C 294.629,702.815 290.962,702.482 287.5,701.5C 290.833,701.5 294.167,701.5 297.5,701.5C 297.5,685.833 297.5,670.167 297.5,654.5C 294.167,654.5 290.833,654.5 287.5,654.5 Z"/></g>
<g><path style="opacity:1" fill="#fefcfc" d="M 354.5,663.5 C 348.974,663.179 343.64,663.512 338.5,664.5C 337.505,676.655 337.171,688.989 337.5,701.5C 334.5,701.5 331.5,701.5 328.5,701.5C 328.829,688.656 328.495,675.989 327.5,663.5C 322.167,663.5 316.833,663.5 311.5,663.5C 311.5,660.167 311.5,656.833 311.5,653.5C 325.833,653.5 340.167,653.5 354.5,653.5C 354.5,656.833 354.5,660.167 354.5,663.5 Z"/></g>
<g><path style="opacity:1" fill="#fff9f9" d="M 435.5,653.5 C 435.5,659.833 435.5,666.167 435.5,672.5C 443.5,672.5 451.5,672.5 459.5,672.5C 459.5,666.167 459.5,659.833 459.5,653.5C 462.833,653.5 466.167,653.5 469.5,653.5C 469.5,669.5 469.5,685.5 469.5,701.5C 466.5,701.5 463.5,701.5 460.5,701.5C 460.5,695.167 460.5,688.833 460.5,682.5C 451.983,682.174 443.65,682.507 435.5,683.5C 435.5,689.833 435.5,696.167 435.5,702.5C 432.167,702.5 428.833,702.5 425.5,702.5C 425.5,686.167 425.5,669.833 425.5,653.5C 428.833,653.5 432.167,653.5 435.5,653.5 Z"/></g>
<g><path style="opacity:1" fill="#fac0c7" d="M 469.5,653.5 C 469.833,653.5 470.167,653.5 470.5,653.5C 470.5,669.833 470.5,686.167 470.5,702.5C 466.833,702.5 463.167,702.5 459.5,702.5C 459.5,702.167 459.5,701.833 459.5,701.5C 459.5,695.5 459.5,689.5 459.5,683.5C 451.5,683.5 443.5,683.5 435.5,683.5C 443.65,682.507 451.983,682.174 460.5,682.5C 460.5,688.833 460.5,695.167 460.5,701.5C 463.5,701.5 466.5,701.5 469.5,701.5C 469.5,685.5 469.5,669.5 469.5,653.5 Z"/></g>
<g><path style="opacity:1" fill="#d42427" d="M 164.5,652.5 C 164.5,652.833 164.5,653.167 164.5,653.5C 158.984,654.258 154.317,656.591 150.5,660.5C 150.714,658.856 150.38,657.356 149.5,656C 154.403,654.334 159.403,653.168 164.5,652.5 Z"/></g>
<g><path style="opacity:1" fill="#b41722" d="M 470.5,653.5 C 471.497,670.325 471.83,687.325 471.5,704.5C 467.029,705.089 463.029,704.423 459.5,702.5C 463.167,702.5 466.833,702.5 470.5,702.5C 470.5,686.167 470.5,669.833 470.5,653.5 Z"/></g>
<g><path style="opacity:1" fill="#d4ecf8" d="M 1099.5,637.5 C 1112.32,635.497 1118.16,640.83 1117,653.5C 1112,661.878 1105.17,663.712 1096.5,659C 1089.15,650.648 1090.15,643.481 1099.5,637.5 Z"/></g>
<g><path style="opacity:1" fill="#1a4792" d="M 1099.5,639.5 C 1113.81,638.285 1118.14,644.118 1112.5,657C 1100.88,662.673 1094.71,659.173 1094,646.5C 1094.97,643.379 1096.8,641.046 1099.5,639.5 Z"/></g>
<g><path style="opacity:1" fill="#d8eefc" d="M 1099.5,642.5 C 1102.52,642.335 1105.52,642.502 1108.5,643C 1111.08,645.12 1111.08,647.287 1108.5,649.5C 1110.31,651.707 1110.64,654.041 1109.5,656.5C 1108.22,654.821 1107.22,652.987 1106.5,651C 1105.21,650.51 1103.87,650.343 1102.5,650.5C 1102.5,652.5 1102.5,654.5 1102.5,656.5C 1101.5,656.5 1100.5,656.5 1099.5,656.5C 1099.5,651.833 1099.5,647.167 1099.5,642.5 Z"/></g>
<g><path style="opacity:1" fill="#2f528b" d="M 1102.5,643.5 C 1106.68,642.831 1108.01,644.331 1106.5,648C 1105.21,648.49 1103.87,648.657 1102.5,648.5C 1102.5,646.833 1102.5,645.167 1102.5,643.5 Z"/></g>
<g><path style="opacity:1" fill="#7aac7a" d="M 1533.5,631.5 C 1533.5,640.833 1533.5,650.167 1533.5,659.5C 1544.83,659.5 1556.17,659.5 1567.5,659.5C 1556.01,660.495 1544.35,660.828 1532.5,660.5C 1532.17,650.652 1532.51,640.986 1533.5,631.5 Z"/></g>
<g><path style="opacity:1" fill="#da2d2d" d="M 273.5,653.5 C 273.943,656.814 274.943,659.981 276.5,663C 275.167,663.333 273.833,663.667 272.5,664C 271.947,665.878 270.947,667.378 269.5,668.5C 271.24,663.613 272.573,658.613 273.5,653.5 Z"/></g>
<g><path style="opacity:1" fill="#cf3738" d="M 400.5,666.5 C 395.02,664.717 389.353,664.051 383.5,664.5C 387.936,662.038 392.603,661.872 397.5,664C 398.942,664.377 399.942,665.21 400.5,666.5 Z"/></g>
<g><path style="opacity:1" fill="#ffdde3" d="M 327.5,663.5 C 328.495,675.989 328.829,688.656 328.5,701.5C 331.5,701.5 334.5,701.5 337.5,701.5C 337.171,688.989 337.505,676.655 338.5,664.5C 338.5,676.833 338.5,689.167 338.5,701.5C 334.833,702.833 331.167,702.833 327.5,701.5C 327.5,688.833 327.5,676.167 327.5,663.5 Z"/></g>
<g><path style="opacity:1" fill="#d23a39" d="M 148.5,663.5 C 148.5,666.5 148.5,669.5 148.5,672.5C 146.974,671.508 146.307,670.008 146.5,668C 146.307,665.992 146.974,664.492 148.5,663.5 Z"/></g>
<g><path style="opacity:1" fill="#d12f31" d="M 201.5,653.5 C 202.744,660.725 204.744,667.725 207.5,674.5C 205.919,672.326 204.419,669.993 203,667.5C 202.675,663.39 201.842,659.39 200.5,655.5C 200.543,654.584 200.876,653.917 201.5,653.5 Z"/></g>
<g><path style="opacity:1" fill="#cb2a2e" d="M 355.5,653.5 C 355.813,657.042 355.479,660.375 354.5,663.5C 354.5,660.167 354.5,656.833 354.5,653.5C 340.167,653.5 325.833,653.5 311.5,653.5C 311.5,656.833 311.5,660.167 311.5,663.5C 316.833,663.5 322.167,663.5 327.5,663.5C 327.5,676.167 327.5,688.833 327.5,701.5C 326.505,689.678 326.172,677.678 326.5,665.5C 321.167,665.5 315.833,665.5 310.5,665.5C 310.5,661.167 310.5,656.833 310.5,652.5C 325.676,652.171 340.676,652.504 355.5,653.5 Z"/></g>
<g><path style="opacity:1" fill="#d22a2c" d="M 183.5,664.5 C 176.529,663.71 169.529,663.377 162.5,663.5C 162.579,664.93 162.246,666.264 161.5,667.5C 162.5,668.167 163.5,668.833 164.5,669.5C 170.344,671.469 176.344,672.802 182.5,673.5C 183.243,674.182 183.909,674.849 184.5,675.5C 176.32,674.415 168.32,672.582 160.5,670C 157.808,667.368 158.141,665.034 161.5,663C 169.163,660.68 176.497,661.18 183.5,664.5 Z"/></g>
<g><path style="opacity:1" fill="#d10919" d="M 355.5,653.5 C 356.796,657.369 356.796,661.369 355.5,665.5C 350.544,666.494 345.544,666.827 340.5,666.5C 340.828,678.345 340.495,690.012 339.5,701.5C 339.5,689.167 339.5,676.833 339.5,664.5C 344.695,664.821 349.695,664.487 354.5,663.5C 355.479,660.375 355.813,657.042 355.5,653.5 Z"/></g>
<g><path style="opacity:1" fill="#cb4b54" d="M 354.5,663.5 C 349.695,664.487 344.695,664.821 339.5,664.5C 339.5,676.833 339.5,689.167 339.5,701.5C 339.167,701.5 338.833,701.5 338.5,701.5C 338.5,689.167 338.5,676.833 338.5,664.5C 343.64,663.512 348.974,663.179 354.5,663.5 Z"/></g>
<g><path style="opacity:1" fill="#c31d28" d="M 435.5,653.5 C 436.49,659.31 436.823,665.31 436.5,671.5C 444.019,671.825 451.352,671.492 458.5,670.5C 458.178,664.642 458.511,658.975 459.5,653.5C 459.5,659.833 459.5,666.167 459.5,672.5C 451.5,672.5 443.5,672.5 435.5,672.5C 435.5,666.167 435.5,659.833 435.5,653.5 Z"/></g>
<g><path style="opacity:1" fill="#abe1ad" d="M 1423.5,669.5 C 1427.71,671.436 1432.38,672.103 1437.5,671.5C 1432.35,672.651 1427.02,672.817 1421.5,672C 1422.07,671.005 1422.73,670.172 1423.5,669.5 Z"/></g>
<g><path style="opacity:1" fill="#aae0ac" d="M 1775.5,669.5 C 1776.48,669.811 1777.14,670.478 1777.5,671.5C 1772.01,672.815 1766.68,672.815 1761.5,671.5C 1766.62,672.103 1771.29,671.436 1775.5,669.5 Z"/></g>
<g><path style="opacity:1" fill="#287827" d="M 1517.5,631.5 C 1518.5,644.99 1518.83,658.656 1518.5,672.5C 1535.5,672.667 1552.5,672.5 1569.5,672C 1574.25,671.122 1578.92,669.955 1583.5,668.5C 1579.72,671.377 1575.39,673.21 1570.5,674C 1552.84,674.5 1535.17,674.667 1517.5,674.5C 1517.5,660.167 1517.5,645.833 1517.5,631.5 Z"/></g>
<g><path style="opacity:1" fill="#cc2d2f" d="M 266.5,680.5 C 265.711,688.598 263.711,696.265 260.5,703.5C 258.333,703.833 256.167,704.167 254,704.5C 250.757,704.693 247.757,704.027 245,702.5C 243.821,693.771 241.321,685.438 237.5,677.5C 236.85,679.184 235.85,680.517 234.5,681.5C 234.691,677.926 235.691,674.593 237.5,671.5C 241.162,681.321 244.329,691.321 247,701.5C 251.118,702.798 255.285,702.798 259.5,701.5C 261.668,694.329 264.002,687.329 266.5,680.5 Z"/></g>
<g><path style="opacity:1" fill="#cd3336" d="M 161.5,680.5 C 166.79,681.47 172.123,682.304 177.5,683C 178.416,683.278 179.082,683.778 179.5,684.5C 174.843,683.835 170.177,683.169 165.5,682.5C 163.667,682.415 162.334,681.748 161.5,680.5 Z"/></g>
<g><path style="opacity:1" fill="#c8393b" d="M 225.5,678.5 C 224.821,681.707 223.654,684.707 222,687.5C 221.153,685.146 220.32,682.812 219.5,680.5C 220.458,680.953 221.292,681.619 222,682.5C 222.949,680.907 224.115,679.574 225.5,678.5 Z"/></g>
<g><path style="opacity:1" fill="#c21a24" d="M 250.5,678.5 C 252.117,679.589 252.95,681.256 253,683.5C 253.278,682.584 253.778,681.918 254.5,681.5C 254.313,683.564 253.813,685.564 253,687.5C 251.698,684.625 250.865,681.625 250.5,678.5 Z"/></g>
<g><path style="opacity:1" fill="#cb3133" d="M 207.5,676.5 C 209.741,681.9 211.408,687.567 212.5,693.5C 209.482,688.401 207.815,682.734 207.5,676.5 Z"/></g>
<g><path style="opacity:1" fill="#c91c26" d="M 435.5,683.5 C 443.5,683.5 451.5,683.5 459.5,683.5C 459.5,689.5 459.5,695.5 459.5,701.5C 458.511,696.025 458.178,690.358 458.5,684.5C 451.167,684.5 443.833,684.5 436.5,684.5C 436.823,690.69 436.49,696.69 435.5,702.5C 435.5,696.167 435.5,689.833 435.5,683.5 Z"/></g>
<g><path style="opacity:1" fill="#d5454b" d="M 399.5,690.5 C 394.336,693.98 389.003,694.314 383.5,691.5C 385.848,691.67 388.182,692.003 390.5,692.5C 393.437,691.53 396.437,690.863 399.5,690.5 Z"/></g>
<g><path style="opacity:1" fill="#c51f26" d="M 153.5,690.5 C 162.691,692.313 172.025,692.98 181.5,692.5C 180.391,693.29 179.058,693.79 177.5,694C 172.167,694.667 166.833,694.667 161.5,694C 158.401,693.613 155.734,692.446 153.5,690.5 Z"/></g>
<g><path style="opacity:1" fill="#d4272e" d="M 491.5,695.5 C 489.616,695.712 488.283,696.712 487.5,698.5C 486.719,697.263 485.719,696.263 484.5,695.5C 483.534,697.396 483.201,699.396 483.5,701.5C 482.839,700.282 482.172,698.949 481.5,697.5C 480.828,698.949 480.161,700.282 479.5,701.5C 479.141,699.234 479.808,697.401 481.5,696C 479.5,695.333 477.5,695.333 475.5,696C 477.25,697.754 477.917,699.921 477.5,702.5C 476.506,699.876 475.506,697.21 474.5,694.5C 480.358,694.178 486.025,694.511 491.5,695.5 Z"/></g>
<g><path style="opacity:1" fill="#d32c2d" d="M 234.5,681.5 C 233.26,686.41 232.427,691.41 232,696.5C 231.114,699.093 229.614,701.093 227.5,702.5C 229.654,695.373 231.987,688.373 234.5,681.5 Z"/></g>
<g><path style="opacity:1" fill="#febfc7" d="M 479.5,701.5 C 479.158,702.338 478.492,702.672 477.5,702.5C 477.917,699.921 477.25,697.754 475.5,696C 477.5,695.333 479.5,695.333 481.5,696C 479.808,697.401 479.141,699.234 479.5,701.5 Z"/></g>
<g><path style="opacity:1" fill="#edafb5" d="M 491.5,695.5 C 491.808,697.924 491.474,700.257 490.5,702.5C 488.001,702.37 485.668,702.037 483.5,701.5C 483.201,699.396 483.534,697.396 484.5,695.5C 485.719,696.263 486.719,697.263 487.5,698.5C 488.283,696.712 489.616,695.712 491.5,695.5 Z"/></g>
<g><path style="opacity:1" fill="#c92429" d="M 212.5,693.5 C 214.072,696.215 215.072,699.215 215.5,702.5C 219.5,702.5 223.5,702.5 227.5,702.5C 223.354,703.647 219.02,703.814 214.5,703C 212.66,700.174 211.994,697.007 212.5,693.5 Z"/></g>
</svg>
